{"title":"Amy Ried - scene from All About Amy Ried.avi","uid":5431416,"size":295966376,"categoryP":"porn","categoryS":"movie_clips","magnet":"?xt=urn:btih:0cbecef43870935e6e7bbbd81cc17d6c1c9465f2&amp;dn=Amy+Ried+-+scene+from+All+About+Amy+Ried.avi&amp;tr=udp%3A%2F%2Ftracker.openbittorrent.com%3A80&amp;tr=udp%3A%2F%2Fopen.demonii.com%3A1337&amp;tr=udp%3A%2F%2Ftracker.coppersurfer.tk%3A6969&amp;tr=udp%3A%2F%2Fexodus.desync.com%3A6969","seeders":0,"leechers":0,"uploader":"hardone01","files":-1,"time":1268434018,"description":"Media Info\n\nGeneral\nComplete name                   : Amy Ried - scene from All About Amy Ried.avi\nFormat                          : AVI\nFormat/Info                     : Audio Video Interleave\nFile size                       : 282 MiB\nDuration                        : 22m 38s\nOverall bit rate                : 1 743 Kbps\nWriting library                 : xTI\n\nVideo\nID                              : 0\nFormat                          : MPEG-4 Visual\nFormat profile                  : Advanced Simple@L5\nFormat settings, BVOP           : Yes\nFormat settings, QPel           : No\nFormat settings, GMC            : No warppoints\nFormat settings, Matrix         : Default (MPEG)\nCodec ID                        : XVID\nCodec ID/Hint                   : XviD\nDuration                        : 22m 38s\nBit rate                        : 1 538 Kbps\nWidth                           : 624 pixels\nHeight                          : 352 pixels\nDisplay aspect ratio            : 16:9\nFrame rate                      : 23.976 fps\nResolution                      : 8 bits\nColorimetry                     : 4:2:0\nScan type                       : Progressive\nBits/(Pixel*Frame)              : 0.292\nStream size                     : 249 MiB (88%)\nWriting library                 : XviD 1.2.1 (UTC 2008-12-04)\n\nAudio\nID                              : 1\nFormat                          : AC-3\nFormat/Info                     : Audio Coding 3\nCodec ID                        : 2000\nDuration                        : 22m 38s\nBit rate mode                   : Constant\nBit rate                        : 192 Kbps\nChannel(s)                      : 2 channels\nChannel positions               : L R\nSampling rate                   : 48.0 KHz\nVideo delay                     : 10ms\nStream size                     : 31.1 MiB (11%)\nAlignment                       : Split accross interleaves\nInterleave, duration            : 42 ms (1.00 video frame)\nInterleave, preload duration    : 41 ms\n\n\n &lt;a href=&quot;\nhttp://bayimg.com/image/nalnkaacc.jpg&quot; rel=&quot;nofollow&quot; target=&quot;_NEW&quot;&gt;\nhttp://bayimg.com/image/nalnkaacc.jpg&lt;/a&gt;\n\n\nWhen your download is complete, stay and Seed Please.  Thank you for helping out!\n\nEnJoY  :-)\n","torrent":{"xt":"urn:btih:0cbecef43870935e6e7bbbd81cc17d6c1c9465f2","amp;dn":"Amy+Ried+-+scene+from+All+About+Amy+Ried.avi","amp;tr":["udp%3A%2F%2Ftracker.openbittorrent.com%3A80","udp%3A%2F%2Fopen.demonii.com%3A1337","udp%3A%2F%2Ftracker.coppersurfer.tk%3A6969","udp%3A%2F%2Fexodus.desync.com%3A6969"],"infoHash":"0cbecef43870935e6e7bbbd81cc17d6c1c9465f2","infoHashBuffer":{"type":"Buffer","data":[12,190,206,244,56,112,147,94,110,123,187,216,28,193,125,108,28,148,101,242]},"announce":[],"urlList":[]}}